<svg width="139" height="30" viewBox="0 0 139 30" fill="none" xmlns="http://www.w3.org/2000/svg">
<path fill-rule="evenodd" clip-rule="evenodd" d="M109.674 26.0001C108.042 26.0001 106.842 25.5681 106.074 24.7041C105.306 23.8161 104.922 22.6761 104.922 21.2841V10.5921H99.1978V7.42407H103.266C103.962 7.42407 104.454 7.29207 104.742 7.02807C105.03 6.74007 105.174 6.23607 105.174 5.51607V0.87207H108.846V7.42407H116.766V10.5921H108.846V22.8321H116.766V26.0001H109.674ZM34.584 26.0001V7.42407H37.932V9.83607H38.112C38.4 9.04407 38.808 8.37207 39.336 7.82007C39.888 7.26807 40.668 6.99207 41.676 6.99207C42.66 6.99207 43.416 7.26807 43.944 7.82007C44.496 8.34807 44.844 9.08007 44.988 10.0161H45.132C45.468 9.17607 45.936 8.46807 46.536 7.89207C47.136 7.29207 48 6.99207 49.128 6.99207C50.568 6.99207 51.564 7.49607 52.116 8.50407C52.692 9.51207 52.98 10.9881 52.98 12.9321V26.0001H49.632V13.4361C49.632 12.1401 49.476 11.2521 49.164 10.7721C48.852 10.2681 48.348 10.0161 47.652 10.0161C47.028 10.0161 46.5 10.2321 46.068 10.6641C45.66 11.0721 45.456 11.6961 45.456 12.5361V26.0001H42.108V13.4361C42.108 12.1401 41.952 11.2521 41.64 10.7721C41.352 10.2681 40.86 10.0161 40.164 10.0161C39.516 10.0161 38.976 10.2321 38.544 10.6641C38.136 11.0721 37.932 11.6961 37.932 12.5361V26.0001H34.584ZM65.3859 26.4321C64.0179 26.4321 62.7819 26.2041 61.6779 25.7481C60.5979 25.2921 59.6739 24.6441 58.9059 23.8041C58.1619 22.9641 57.5859 21.9441 57.1779 20.7441C56.7699 19.5441 56.5659 18.2001 56.5659 16.7121C56.5659 15.2241 56.7699 13.8801 57.1779 12.6801C57.5859 11.4801 58.1619 10.4601 58.9059 9.62007C59.6739 8.78007 60.5979 8.13207 61.6779 7.67607C62.7819 7.22007 64.0179 6.99207 65.3859 6.99207C66.7539 6.99207 67.9779 7.22007 69.0579 7.67607C70.1619 8.13207 71.0859 8.78007 71.8299 9.62007C72.5979 10.4601 73.1859 11.4801 73.5939 12.6801C74.0019 13.8801 74.2059 15.2241 74.2059 16.7121C74.2059 18.2001 74.0019 19.5441 73.5939 20.7441C73.1859 21.9441 72.5979 22.9641 71.8299 23.8041C71.0859 24.6441 70.1619 25.2921 69.0579 25.7481C67.9779 26.2041 66.7539 26.4321 65.3859 26.4321ZM65.3859 23.3361C66.8259 23.3361 67.9659 22.9041 68.8059 22.0401C69.6699 21.1521 70.1019 19.8441 70.1019 18.1161V15.3081C70.1019 13.5801 69.6699 12.2841 68.8059 11.4201C67.9659 10.5321 66.8259 10.0881 65.3859 10.0881C63.9459 10.0881 62.7939 10.5321 61.9299 11.4201C61.0899 12.2841 60.6699 13.5801 60.6699 15.3081V18.1161C60.6699 19.8441 61.0899 21.1521 61.9299 22.0401C62.7939 22.9041 63.9459 23.3361 65.3859 23.3361ZM90.6439 22.8321H90.8239V26.0001H94.7479V7.42407H90.8239V20.0241C90.8239 20.5761 90.7039 21.0561 90.4639 21.4641C90.2479 21.8481 89.9479 22.1721 89.5639 22.4361C89.1799 22.7001 88.7479 22.9041 88.2679 23.0481C87.7879 23.1681 87.2959 23.2281 86.7919 23.2281C84.2239 23.2281 82.9399 21.7521 82.9399 18.8001V7.42407H79.0159V19.3761C79.0159 21.6321 79.5919 23.3721 80.7439 24.5961C81.8959 25.8201 83.4079 26.4321 85.2799 26.4321C86.0479 26.4321 86.7199 26.3361 87.2959 26.1441C87.8719 25.9521 88.3759 25.7001 88.8079 25.3881C89.2399 25.0521 89.5999 24.6681 89.8879 24.2361C90.1999 23.7801 90.4519 23.3121 90.6439 22.8321ZM126.436 25.7481C127.54 26.2041 128.776 26.4321 130.144 26.4321C131.512 26.4321 132.736 26.2041 133.816 25.7481C134.92 25.2921 135.844 24.6441 136.588 23.8041C137.356 22.9641 137.944 21.9441 138.352 20.7441C138.76 19.5441 138.964 18.2001 138.964 16.7121C138.964 15.2241 138.76 13.8801 138.352 12.6801C137.944 11.4801 137.356 10.4601 136.588 9.62007C135.844 8.78007 134.92 8.13207 133.816 7.67607C132.736 7.22007 131.512 6.99207 130.144 6.99207C128.776 6.99207 127.54 7.22007 126.436 7.67607C125.356 8.13207 124.432 8.78007 123.664 9.62007C122.92 10.4601 122.344 11.4801 121.936 12.6801C121.528 13.8801 121.324 15.2241 121.324 16.7121C121.324 18.2001 121.528 19.5441 121.936 20.7441C122.344 21.9441 122.92 22.9641 123.664 23.8041C124.432 24.6441 125.356 25.2921 126.436 25.7481ZM133.564 22.0401C132.724 22.9041 131.584 23.3361 130.144 23.3361C128.704 23.3361 127.552 22.9041 126.688 22.0401C125.848 21.1521 125.428 19.8441 125.428 18.1161V15.3081C125.428 13.5801 125.848 12.2841 126.688 11.4201C127.552 10.5321 128.704 10.0881 130.144 10.0881C131.584 10.0881 132.724 10.5321 133.564 11.4201C134.428 12.2841 134.86 13.5801 134.86 15.3081V18.1161C134.86 19.8441 134.428 21.1521 133.564 22.0401ZM10.1792 14.1775H0V3.00008C5.301 4.29137 9.37781 8.70184 10.1795 14.1772H14.4238C14.3282 14.8229 14.2795 15.4836 14.2795 16.1561C14.2795 16.8286 14.3282 17.4894 14.4238 18.135H10.1796C9.37795 23.6105 5.30109 28.0211 0 29.3124V18.135H10.1792C10.2748 17.4894 10.3234 16.8286 10.3234 16.1561C10.3234 15.4837 10.2748 14.8231 10.1792 14.1775ZM24.6036 14.1775H14.4241C15.2257 8.70198 19.3025 4.2914 24.6036 3.00008V14.1775ZM14.4241 18.135H24.6036V29.3124C19.3025 28.0211 15.2257 23.6105 14.4241 18.135Z" fill="#EFF0F6"/>
</svg>
